<svg xmlns="http://www.w3.org/2000/svg" viewBox="0 0 39.86 40"><defs><style>.cls-1{fill:#ff820a;}</style></defs><g id="Layer_2" data-name="Layer 2"><g id="Layer_1-2" data-name="Layer 1"><path class="cls-1" d="M25.09,1.05,21.16,0,17.84,12.37l-3-11.17L10.92,2.26l3.23,12.06-8-8L3.22,9.15,12.05,18l-11-3L0,19l12,3.22a8.15,8.15,0,1,1,15.87,0L38.81,25.1l1-3.93L27.8,17.94l11-3-1.06-3.94L25.68,14.29l8-8L30.85,3.36l-8.71,8.71Z"/><path class="cls-1" d="M27.88,22.22a8.14,8.14,0,0,1-2,3.73l7.91,7.92L36.64,31ZM25.77,26a8.24,8.24,0,0,1-3.64,2.15L25,38.93l3.94-1ZM22,28.23a8.26,8.26,0,0,1-2,.25,8.18,8.18,0,0,1-2.17-.29L14.9,39l3.93,1L22,28.23Zm-4.35-.08A8.16,8.16,0,0,1,14.07,26L6.13,33.9,9,36.78l8.63-8.63ZM14,25.9a8.2,8.2,0,0,1-2-3.69L1.07,25.15l1.05,3.93Z"/></g></g></svg>